<?xml version="1.0" standalone="no"?>
<!DOCTYPE svg PUBLIC "-//W3C//DTD SVG 20010904//EN"
 "http://www.w3.org/TR/2001/REC-SVG-20010904/DTD/svg10.dtd">
<svg width="200" height="200" xmlns="http://www.w3.org/2000/svg" preserveAspectRatio="xMidYMid meet">
 <g>
  <rect x="-1" y="-1" width="202" height="202" id="canvas_background" fill="none"/>
 </g>
 <g>
  <title>Layer 1</title>
  <rect fill="#000000" stroke-width="1.5" x="-1.50001" y="-1.54687" width="203.00001" height="203" id="svg_3" stroke="#000"/>
  <g transform="translate(0,200) scale(0.10000000149011612,-0.10000000149011612) " fill="#000000" id="svg_1">
   <path stroke="#ffffff" fill="#ffffff" d="m530,1621c0,-23 4,-31 19,-31c39,0 82,-23 99,-54c15,-28 17,-79 17,-526c0,-555 1,-547 -66,-574c-22,-9 -48,-16 -59,-16c-15,0 -20,-7 -20,-25l0,-25l280,0l280,0l0,23c0,21 -7,25 -61,35c-68,12 -86,24 -101,62c-9,24 -12,389 -3,398c2,3 34,-3 70,-12c61,-15 73,-15 147,-1c200,38 322,156 347,335c26,198 -59,353 -225,410c-66,22 -85,24 -396,28l-328,4l0,-31zm558,-60c49,-25 76,-56 104,-116c19,-43 23,-67 23,-165c0,-85 -5,-129 -18,-169c-42,-124 -133,-179 -256,-155l-31,7l0,292c0,312 -1,308 50,328c24,10 88,-2 128,-22z" id="svg_2"/>
  </g>
 </g>
</svg>
