<?xml version="1.0" standalone="no"?>
<!DOCTYPE svg PUBLIC "-//W3C//DTD SVG 20010904//EN"
 "http://www.w3.org/TR/2001/REC-SVG-20010904/DTD/svg10.dtd">
<svg version="1.0" xmlns="http://www.w3.org/2000/svg"
 width="200.000000pt" height="200.000000pt" viewBox="0 0 200.000000 200.000000"
 preserveAspectRatio="xMidYMid meet">
<g transform="translate(0.000000,200.000000) scale(0.100000,-0.100000)"
fill="#000000" stroke="none">
<path d="M530 1621 c0 -23 4 -31 19 -31 39 0 82 -23 99 -54 15 -28 17 -79 17
-526 0 -555 1 -547 -66 -574 -22 -9 -48 -16 -59 -16 -15 0 -20 -7 -20 -25 l0
-25 280 0 280 0 0 23 c0 21 -7 25 -61 35 -68 12 -86 24 -101 62 -9 24 -12 389
-3 398 2 3 34 -3 70 -12 61 -15 73 -15 147 -1 200 38 322 156 347 335 26 198
-59 353 -225 410 -66 22 -85 24 -396 28 l-328 4 0 -31z m558 -60 c49 -25 76
-56 104 -116 19 -43 23 -67 23 -165 0 -85 -5 -129 -18 -169 -42 -124 -133
-179 -256 -155 l-31 7 0 292 c0 312 -1 308 50 328 24 10 88 -2 128 -22z"/>
</g>
</svg>
